<svg preserveAspectRatio="none" width="100%" height="100%" overflow="visible" style="display: block;" viewBox="0 0 200.208 283" fill="none" xmlns="http://www.w3.org/2000/svg">
<path id="Subtract" d="M200.208 283H0V268.007C3.52182 266.676 5.99997 263.51 6 259.814C6 256.118 3.52216 252.951 0 251.62V238.002C3.52183 236.671 6 233.505 6 229.81C5.99999 226.114 3.522 222.947 0 221.616V207.997C3.52182 206.666 5.99995 203.501 6 199.805C6 196.109 3.52216 192.941 0 191.61V177.993C3.52197 176.662 6 173.496 6 169.8C5.99991 166.104 3.52197 162.937 0 161.606V147.988C3.52199 146.657 6 143.491 6 139.795C5.99996 136.099 3.52199 132.932 0 131.602V117.983C3.52197 116.653 6 113.486 6 109.79C5.99992 106.094 3.52198 102.927 0 101.597V87.9785C3.52195 86.6477 6 83.4811 6 79.7852C5.99988 76.0892 3.52196 72.9225 0 71.5918V57.9727C3.52181 56.6418 5.99996 53.4761 6 49.7803C6 46.0842 3.52215 42.9167 0 41.5859V27.9688C3.52179 26.638 5.99985 23.4722 6 19.7764C6 16.0803 3.52213 12.9128 0 11.582V0H200.208V283Z" fill="var(--fill-0, #A78D5C)" fill-opacity="0.9"/>
</svg>
